# xmcd
# 
# Track frame offsets:
#     150
#     15825
#     29178
#     42235
#     56359
#     71950
#     87057
#     106966
#     120212
#     132429
#     144593
#     161700
#     176717
#     191608
#     206616
#     221840
#     238656
#     254716
#     268473
#     283211
# 
# Disc length: 3976
# 
# Revision: 1
# Processed by: cddbd v1.5.2PL0 Copyright (c) Steve Scherf et al.
# Submitted via: BonkEnc v1.0.8
# 
DISCID=3a0f8614
DTITLE=Varos - viola Sertaneja
DYEAR=2000
DGENRE=Country
TTITLE0=Canarinho Prisioneiro - Chico Rey and Paraná
TTITLE1=Pescador - Cacique and Pagé
TTITLE2=Viola Pagodeira - Ronaldo and João Carvalho
TTITLE3=Canoeiro - Zé Carreiro and Carreirinho
TTITLE4=O Caçador - Tião Careiro and Pardinho
TTITLE5=A Viola e a Saudade - Ronaldo Viola and João Carvalho
TTITLE6=Caçada de Onça - Craveiro and Cravinho
TTITLE7=O Pescador Vagabundo - Moreno and Moreninho
TTITLE8=Sucuri - Zé Carreiro and Carreirinho
TTITLE9=Pirangueiro - Zé Carreiro and Carreirinho
TTITLE10=Companheiro de Ferreirinha - Tião Carreiro and Pardinho
TTITLE11=A Viola e a Pescaria - Goiano and Paranaense
TTITLE12=Caçando e Pescando - Cacique and Pagé
TTITLE13=Golpe da Emoçaõ - Camões and Camargo
TTITLE14=Filhote de Onça - Lourenço and Lourival
TTITLE15=Linha Reta - Dino Franco and Morai
TTITLE16=Prato do Dia - Tião Carreiro and Pardinho
TTITLE17=Cachorro Valente - Jacó and Jacozinho
TTITLE18=Velho Peão - Zico and Zeca
TTITLE19=Booi Cigano - Tião Carreiro and Pardinho
EXTD=Viola Cabocla\nGenero sertanejo raiz
EXTT0=
EXTT1=
EXTT2=
EXTT3=
EXTT4=
EXTT5=
EXTT6=
EXTT7=
EXTT8=
EXTT9=
EXTT10=
EXTT11=
EXTT12=
EXTT13=
EXTT14=
EXTT15=
EXTT16=
EXTT17=
EXTT18=
EXTT19=
PLAYORDER=
